%TF.GenerationSoftware,KiCad,Pcbnew,9.0.3*%
%TF.CreationDate,2025-07-28T22:58:47-04:00*%
%TF.ProjectId,9kMacroPCB,396b4d61-6372-46f5-9043-422e6b696361,rev?*%
%TF.SameCoordinates,Original*%
%TF.FileFunction,Legend,Bot*%
%TF.FilePolarity,Positive*%
%FSLAX46Y46*%
G04 Gerber Fmt 4.6, Leading zero omitted, Abs format (unit mm)*
G04 Created by KiCad (PCBNEW 9.0.3) date 2025-07-28 22:58:47*
%MOMM*%
%LPD*%
G01*
G04 APERTURE LIST*
%ADD10C,0.150000*%
%ADD11C,0.101600*%
%ADD12C,0.120000*%
%ADD13C,0.127000*%
%ADD14C,0.100000*%
%ADD15C,0.504000*%
G04 APERTURE END LIST*
D10*
X158639166Y-51128819D02*
X158972499Y-50652628D01*
X159210594Y-51128819D02*
X159210594Y-50128819D01*
X159210594Y-50128819D02*
X158829642Y-50128819D01*
X158829642Y-50128819D02*
X158734404Y-50176438D01*
X158734404Y-50176438D02*
X158686785Y-50224057D01*
X158686785Y-50224057D02*
X158639166Y-50319295D01*
X158639166Y-50319295D02*
X158639166Y-50462152D01*
X158639166Y-50462152D02*
X158686785Y-50557390D01*
X158686785Y-50557390D02*
X158734404Y-50605009D01*
X158734404Y-50605009D02*
X158829642Y-50652628D01*
X158829642Y-50652628D02*
X159210594Y-50652628D01*
X157782023Y-50128819D02*
X157972499Y-50128819D01*
X157972499Y-50128819D02*
X158067737Y-50176438D01*
X158067737Y-50176438D02*
X158115356Y-50224057D01*
X158115356Y-50224057D02*
X158210594Y-50366914D01*
X158210594Y-50366914D02*
X158258213Y-50557390D01*
X158258213Y-50557390D02*
X158258213Y-50938342D01*
X158258213Y-50938342D02*
X158210594Y-51033580D01*
X158210594Y-51033580D02*
X158162975Y-51081200D01*
X158162975Y-51081200D02*
X158067737Y-51128819D01*
X158067737Y-51128819D02*
X157877261Y-51128819D01*
X157877261Y-51128819D02*
X157782023Y-51081200D01*
X157782023Y-51081200D02*
X157734404Y-51033580D01*
X157734404Y-51033580D02*
X157686785Y-50938342D01*
X157686785Y-50938342D02*
X157686785Y-50700247D01*
X157686785Y-50700247D02*
X157734404Y-50605009D01*
X157734404Y-50605009D02*
X157782023Y-50557390D01*
X157782023Y-50557390D02*
X157877261Y-50509771D01*
X157877261Y-50509771D02*
X158067737Y-50509771D01*
X158067737Y-50509771D02*
X158162975Y-50557390D01*
X158162975Y-50557390D02*
X158210594Y-50605009D01*
X158210594Y-50605009D02*
X158258213Y-50700247D01*
X151362819Y-62380905D02*
X150362819Y-62380905D01*
X150362819Y-62380905D02*
X150362819Y-62619000D01*
X150362819Y-62619000D02*
X150410438Y-62761857D01*
X150410438Y-62761857D02*
X150505676Y-62857095D01*
X150505676Y-62857095D02*
X150600914Y-62904714D01*
X150600914Y-62904714D02*
X150791390Y-62952333D01*
X150791390Y-62952333D02*
X150934247Y-62952333D01*
X150934247Y-62952333D02*
X151124723Y-62904714D01*
X151124723Y-62904714D02*
X151219961Y-62857095D01*
X151219961Y-62857095D02*
X151315200Y-62761857D01*
X151315200Y-62761857D02*
X151362819Y-62619000D01*
X151362819Y-62619000D02*
X151362819Y-62380905D01*
X150362819Y-63857095D02*
X150362819Y-63380905D01*
X150362819Y-63380905D02*
X150839009Y-63333286D01*
X150839009Y-63333286D02*
X150791390Y-63380905D01*
X150791390Y-63380905D02*
X150743771Y-63476143D01*
X150743771Y-63476143D02*
X150743771Y-63714238D01*
X150743771Y-63714238D02*
X150791390Y-63809476D01*
X150791390Y-63809476D02*
X150839009Y-63857095D01*
X150839009Y-63857095D02*
X150934247Y-63904714D01*
X150934247Y-63904714D02*
X151172342Y-63904714D01*
X151172342Y-63904714D02*
X151267580Y-63857095D01*
X151267580Y-63857095D02*
X151315200Y-63809476D01*
X151315200Y-63809476D02*
X151362819Y-63714238D01*
X151362819Y-63714238D02*
X151362819Y-63476143D01*
X151362819Y-63476143D02*
X151315200Y-63380905D01*
X151315200Y-63380905D02*
X151267580Y-63333286D01*
X157162166Y-46302819D02*
X157495499Y-45826628D01*
X157733594Y-46302819D02*
X157733594Y-45302819D01*
X157733594Y-45302819D02*
X157352642Y-45302819D01*
X157352642Y-45302819D02*
X157257404Y-45350438D01*
X157257404Y-45350438D02*
X157209785Y-45398057D01*
X157209785Y-45398057D02*
X157162166Y-45493295D01*
X157162166Y-45493295D02*
X157162166Y-45636152D01*
X157162166Y-45636152D02*
X157209785Y-45731390D01*
X157209785Y-45731390D02*
X157257404Y-45779009D01*
X157257404Y-45779009D02*
X157352642Y-45826628D01*
X157352642Y-45826628D02*
X157733594Y-45826628D01*
X156257404Y-45302819D02*
X156733594Y-45302819D01*
X156733594Y-45302819D02*
X156781213Y-45779009D01*
X156781213Y-45779009D02*
X156733594Y-45731390D01*
X156733594Y-45731390D02*
X156638356Y-45683771D01*
X156638356Y-45683771D02*
X156400261Y-45683771D01*
X156400261Y-45683771D02*
X156305023Y-45731390D01*
X156305023Y-45731390D02*
X156257404Y-45779009D01*
X156257404Y-45779009D02*
X156209785Y-45874247D01*
X156209785Y-45874247D02*
X156209785Y-46112342D01*
X156209785Y-46112342D02*
X156257404Y-46207580D01*
X156257404Y-46207580D02*
X156305023Y-46255200D01*
X156305023Y-46255200D02*
X156400261Y-46302819D01*
X156400261Y-46302819D02*
X156638356Y-46302819D01*
X156638356Y-46302819D02*
X156733594Y-46255200D01*
X156733594Y-46255200D02*
X156781213Y-46207580D01*
X132627666Y-53160819D02*
X132960999Y-52684628D01*
X133199094Y-53160819D02*
X133199094Y-52160819D01*
X133199094Y-52160819D02*
X132818142Y-52160819D01*
X132818142Y-52160819D02*
X132722904Y-52208438D01*
X132722904Y-52208438D02*
X132675285Y-52256057D01*
X132675285Y-52256057D02*
X132627666Y-52351295D01*
X132627666Y-52351295D02*
X132627666Y-52494152D01*
X132627666Y-52494152D02*
X132675285Y-52589390D01*
X132675285Y-52589390D02*
X132722904Y-52637009D01*
X132722904Y-52637009D02*
X132818142Y-52684628D01*
X132818142Y-52684628D02*
X133199094Y-52684628D01*
X131770523Y-52494152D02*
X131770523Y-53160819D01*
X132008618Y-52113200D02*
X132246713Y-52827485D01*
X132246713Y-52827485D02*
X131627666Y-52827485D01*
X132627666Y-55573819D02*
X132960999Y-55097628D01*
X133199094Y-55573819D02*
X133199094Y-54573819D01*
X133199094Y-54573819D02*
X132818142Y-54573819D01*
X132818142Y-54573819D02*
X132722904Y-54621438D01*
X132722904Y-54621438D02*
X132675285Y-54669057D01*
X132675285Y-54669057D02*
X132627666Y-54764295D01*
X132627666Y-54764295D02*
X132627666Y-54907152D01*
X132627666Y-54907152D02*
X132675285Y-55002390D01*
X132675285Y-55002390D02*
X132722904Y-55050009D01*
X132722904Y-55050009D02*
X132818142Y-55097628D01*
X132818142Y-55097628D02*
X133199094Y-55097628D01*
X132294332Y-54573819D02*
X131675285Y-54573819D01*
X131675285Y-54573819D02*
X132008618Y-54954771D01*
X132008618Y-54954771D02*
X131865761Y-54954771D01*
X131865761Y-54954771D02*
X131770523Y-55002390D01*
X131770523Y-55002390D02*
X131722904Y-55050009D01*
X131722904Y-55050009D02*
X131675285Y-55145247D01*
X131675285Y-55145247D02*
X131675285Y-55383342D01*
X131675285Y-55383342D02*
X131722904Y-55478580D01*
X131722904Y-55478580D02*
X131770523Y-55526200D01*
X131770523Y-55526200D02*
X131865761Y-55573819D01*
X131865761Y-55573819D02*
X132151475Y-55573819D01*
X132151475Y-55573819D02*
X132246713Y-55526200D01*
X132246713Y-55526200D02*
X132294332Y-55478580D01*
X132651166Y-50493819D02*
X132984499Y-50017628D01*
X133222594Y-50493819D02*
X133222594Y-49493819D01*
X133222594Y-49493819D02*
X132841642Y-49493819D01*
X132841642Y-49493819D02*
X132746404Y-49541438D01*
X132746404Y-49541438D02*
X132698785Y-49589057D01*
X132698785Y-49589057D02*
X132651166Y-49684295D01*
X132651166Y-49684295D02*
X132651166Y-49827152D01*
X132651166Y-49827152D02*
X132698785Y-49922390D01*
X132698785Y-49922390D02*
X132746404Y-49970009D01*
X132746404Y-49970009D02*
X132841642Y-50017628D01*
X132841642Y-50017628D02*
X133222594Y-50017628D01*
X132270213Y-49589057D02*
X132222594Y-49541438D01*
X132222594Y-49541438D02*
X132127356Y-49493819D01*
X132127356Y-49493819D02*
X131889261Y-49493819D01*
X131889261Y-49493819D02*
X131794023Y-49541438D01*
X131794023Y-49541438D02*
X131746404Y-49589057D01*
X131746404Y-49589057D02*
X131698785Y-49684295D01*
X131698785Y-49684295D02*
X131698785Y-49779533D01*
X131698785Y-49779533D02*
X131746404Y-49922390D01*
X131746404Y-49922390D02*
X132317832Y-50493819D01*
X132317832Y-50493819D02*
X131698785Y-50493819D01*
X132627666Y-47953819D02*
X132960999Y-47477628D01*
X133199094Y-47953819D02*
X133199094Y-46953819D01*
X133199094Y-46953819D02*
X132818142Y-46953819D01*
X132818142Y-46953819D02*
X132722904Y-47001438D01*
X132722904Y-47001438D02*
X132675285Y-47049057D01*
X132675285Y-47049057D02*
X132627666Y-47144295D01*
X132627666Y-47144295D02*
X132627666Y-47287152D01*
X132627666Y-47287152D02*
X132675285Y-47382390D01*
X132675285Y-47382390D02*
X132722904Y-47430009D01*
X132722904Y-47430009D02*
X132818142Y-47477628D01*
X132818142Y-47477628D02*
X133199094Y-47477628D01*
X131675285Y-47953819D02*
X132246713Y-47953819D01*
X131960999Y-47953819D02*
X131960999Y-46953819D01*
X131960999Y-46953819D02*
X132056237Y-47096676D01*
X132056237Y-47096676D02*
X132151475Y-47191914D01*
X132151475Y-47191914D02*
X132246713Y-47239533D01*
D11*
X153436809Y-36802479D02*
X153436809Y-37316526D01*
X153436809Y-37316526D02*
X153406571Y-37377002D01*
X153406571Y-37377002D02*
X153376333Y-37407241D01*
X153376333Y-37407241D02*
X153315857Y-37437479D01*
X153315857Y-37437479D02*
X153194904Y-37437479D01*
X153194904Y-37437479D02*
X153134428Y-37407241D01*
X153134428Y-37407241D02*
X153104190Y-37377002D01*
X153104190Y-37377002D02*
X153073952Y-37316526D01*
X153073952Y-37316526D02*
X153073952Y-36802479D01*
X152438952Y-37437479D02*
X152801809Y-37437479D01*
X152620381Y-37437479D02*
X152620381Y-36802479D01*
X152620381Y-36802479D02*
X152680857Y-36893193D01*
X152680857Y-36893193D02*
X152741333Y-36953669D01*
X152741333Y-36953669D02*
X152801809Y-36983907D01*
D10*
X128883819Y-42918155D02*
X127883819Y-42918155D01*
X127883819Y-42918155D02*
X127883819Y-43156250D01*
X127883819Y-43156250D02*
X127931438Y-43299107D01*
X127931438Y-43299107D02*
X128026676Y-43394345D01*
X128026676Y-43394345D02*
X128121914Y-43441964D01*
X128121914Y-43441964D02*
X128312390Y-43489583D01*
X128312390Y-43489583D02*
X128455247Y-43489583D01*
X128455247Y-43489583D02*
X128645723Y-43441964D01*
X128645723Y-43441964D02*
X128740961Y-43394345D01*
X128740961Y-43394345D02*
X128836200Y-43299107D01*
X128836200Y-43299107D02*
X128883819Y-43156250D01*
X128883819Y-43156250D02*
X128883819Y-42918155D01*
X128883819Y-44441964D02*
X128883819Y-43870536D01*
X128883819Y-44156250D02*
X127883819Y-44156250D01*
X127883819Y-44156250D02*
X128026676Y-44061012D01*
X128026676Y-44061012D02*
X128121914Y-43965774D01*
X128121914Y-43965774D02*
X128169533Y-43870536D01*
X168317319Y-42918155D02*
X167317319Y-42918155D01*
X167317319Y-42918155D02*
X167317319Y-43156250D01*
X167317319Y-43156250D02*
X167364938Y-43299107D01*
X167364938Y-43299107D02*
X167460176Y-43394345D01*
X167460176Y-43394345D02*
X167555414Y-43441964D01*
X167555414Y-43441964D02*
X167745890Y-43489583D01*
X167745890Y-43489583D02*
X167888747Y-43489583D01*
X167888747Y-43489583D02*
X168079223Y-43441964D01*
X168079223Y-43441964D02*
X168174461Y-43394345D01*
X168174461Y-43394345D02*
X168269700Y-43299107D01*
X168269700Y-43299107D02*
X168317319Y-43156250D01*
X168317319Y-43156250D02*
X168317319Y-42918155D01*
X167317319Y-43822917D02*
X167317319Y-44441964D01*
X167317319Y-44441964D02*
X167698271Y-44108631D01*
X167698271Y-44108631D02*
X167698271Y-44251488D01*
X167698271Y-44251488D02*
X167745890Y-44346726D01*
X167745890Y-44346726D02*
X167793509Y-44394345D01*
X167793509Y-44394345D02*
X167888747Y-44441964D01*
X167888747Y-44441964D02*
X168126842Y-44441964D01*
X168126842Y-44441964D02*
X168222080Y-44394345D01*
X168222080Y-44394345D02*
X168269700Y-44346726D01*
X168269700Y-44346726D02*
X168317319Y-44251488D01*
X168317319Y-44251488D02*
X168317319Y-43965774D01*
X168317319Y-43965774D02*
X168269700Y-43870536D01*
X168269700Y-43870536D02*
X168222080Y-43822917D01*
X131550819Y-62380905D02*
X130550819Y-62380905D01*
X130550819Y-62380905D02*
X130550819Y-62619000D01*
X130550819Y-62619000D02*
X130598438Y-62761857D01*
X130598438Y-62761857D02*
X130693676Y-62857095D01*
X130693676Y-62857095D02*
X130788914Y-62904714D01*
X130788914Y-62904714D02*
X130979390Y-62952333D01*
X130979390Y-62952333D02*
X131122247Y-62952333D01*
X131122247Y-62952333D02*
X131312723Y-62904714D01*
X131312723Y-62904714D02*
X131407961Y-62857095D01*
X131407961Y-62857095D02*
X131503200Y-62761857D01*
X131503200Y-62761857D02*
X131550819Y-62619000D01*
X131550819Y-62619000D02*
X131550819Y-62380905D01*
X130884152Y-63809476D02*
X131550819Y-63809476D01*
X130503200Y-63571381D02*
X131217485Y-63333286D01*
X131217485Y-63333286D02*
X131217485Y-63952333D01*
X171174819Y-62380905D02*
X170174819Y-62380905D01*
X170174819Y-62380905D02*
X170174819Y-62619000D01*
X170174819Y-62619000D02*
X170222438Y-62761857D01*
X170222438Y-62761857D02*
X170317676Y-62857095D01*
X170317676Y-62857095D02*
X170412914Y-62904714D01*
X170412914Y-62904714D02*
X170603390Y-62952333D01*
X170603390Y-62952333D02*
X170746247Y-62952333D01*
X170746247Y-62952333D02*
X170936723Y-62904714D01*
X170936723Y-62904714D02*
X171031961Y-62857095D01*
X171031961Y-62857095D02*
X171127200Y-62761857D01*
X171127200Y-62761857D02*
X171174819Y-62619000D01*
X171174819Y-62619000D02*
X171174819Y-62380905D01*
X170174819Y-63809476D02*
X170174819Y-63619000D01*
X170174819Y-63619000D02*
X170222438Y-63523762D01*
X170222438Y-63523762D02*
X170270057Y-63476143D01*
X170270057Y-63476143D02*
X170412914Y-63380905D01*
X170412914Y-63380905D02*
X170603390Y-63333286D01*
X170603390Y-63333286D02*
X170984342Y-63333286D01*
X170984342Y-63333286D02*
X171079580Y-63380905D01*
X171079580Y-63380905D02*
X171127200Y-63428524D01*
X171127200Y-63428524D02*
X171174819Y-63523762D01*
X171174819Y-63523762D02*
X171174819Y-63714238D01*
X171174819Y-63714238D02*
X171127200Y-63809476D01*
X171127200Y-63809476D02*
X171079580Y-63857095D01*
X171079580Y-63857095D02*
X170984342Y-63904714D01*
X170984342Y-63904714D02*
X170746247Y-63904714D01*
X170746247Y-63904714D02*
X170651009Y-63857095D01*
X170651009Y-63857095D02*
X170603390Y-63809476D01*
X170603390Y-63809476D02*
X170555771Y-63714238D01*
X170555771Y-63714238D02*
X170555771Y-63523762D01*
X170555771Y-63523762D02*
X170603390Y-63428524D01*
X170603390Y-63428524D02*
X170651009Y-63380905D01*
X170651009Y-63380905D02*
X170746247Y-63333286D01*
X135011069Y-88955655D02*
X134011069Y-88955655D01*
X134011069Y-88955655D02*
X134011069Y-89193750D01*
X134011069Y-89193750D02*
X134058688Y-89336607D01*
X134058688Y-89336607D02*
X134153926Y-89431845D01*
X134153926Y-89431845D02*
X134249164Y-89479464D01*
X134249164Y-89479464D02*
X134439640Y-89527083D01*
X134439640Y-89527083D02*
X134582497Y-89527083D01*
X134582497Y-89527083D02*
X134772973Y-89479464D01*
X134772973Y-89479464D02*
X134868211Y-89431845D01*
X134868211Y-89431845D02*
X134963450Y-89336607D01*
X134963450Y-89336607D02*
X135011069Y-89193750D01*
X135011069Y-89193750D02*
X135011069Y-88955655D01*
X134011069Y-89860417D02*
X134011069Y-90527083D01*
X134011069Y-90527083D02*
X135011069Y-90098512D01*
X156411069Y-42918155D02*
X155411069Y-42918155D01*
X155411069Y-42918155D02*
X155411069Y-43156250D01*
X155411069Y-43156250D02*
X155458688Y-43299107D01*
X155458688Y-43299107D02*
X155553926Y-43394345D01*
X155553926Y-43394345D02*
X155649164Y-43441964D01*
X155649164Y-43441964D02*
X155839640Y-43489583D01*
X155839640Y-43489583D02*
X155982497Y-43489583D01*
X155982497Y-43489583D02*
X156172973Y-43441964D01*
X156172973Y-43441964D02*
X156268211Y-43394345D01*
X156268211Y-43394345D02*
X156363450Y-43299107D01*
X156363450Y-43299107D02*
X156411069Y-43156250D01*
X156411069Y-43156250D02*
X156411069Y-42918155D01*
X155506307Y-43870536D02*
X155458688Y-43918155D01*
X155458688Y-43918155D02*
X155411069Y-44013393D01*
X155411069Y-44013393D02*
X155411069Y-44251488D01*
X155411069Y-44251488D02*
X155458688Y-44346726D01*
X155458688Y-44346726D02*
X155506307Y-44394345D01*
X155506307Y-44394345D02*
X155601545Y-44441964D01*
X155601545Y-44441964D02*
X155696783Y-44441964D01*
X155696783Y-44441964D02*
X155839640Y-44394345D01*
X155839640Y-44394345D02*
X156411069Y-43822917D01*
X156411069Y-43822917D02*
X156411069Y-44441964D01*
X174698569Y-88955655D02*
X173698569Y-88955655D01*
X173698569Y-88955655D02*
X173698569Y-89193750D01*
X173698569Y-89193750D02*
X173746188Y-89336607D01*
X173746188Y-89336607D02*
X173841426Y-89431845D01*
X173841426Y-89431845D02*
X173936664Y-89479464D01*
X173936664Y-89479464D02*
X174127140Y-89527083D01*
X174127140Y-89527083D02*
X174269997Y-89527083D01*
X174269997Y-89527083D02*
X174460473Y-89479464D01*
X174460473Y-89479464D02*
X174555711Y-89431845D01*
X174555711Y-89431845D02*
X174650950Y-89336607D01*
X174650950Y-89336607D02*
X174698569Y-89193750D01*
X174698569Y-89193750D02*
X174698569Y-88955655D01*
X174698569Y-90003274D02*
X174698569Y-90193750D01*
X174698569Y-90193750D02*
X174650950Y-90288988D01*
X174650950Y-90288988D02*
X174603330Y-90336607D01*
X174603330Y-90336607D02*
X174460473Y-90431845D01*
X174460473Y-90431845D02*
X174269997Y-90479464D01*
X174269997Y-90479464D02*
X173889045Y-90479464D01*
X173889045Y-90479464D02*
X173793807Y-90431845D01*
X173793807Y-90431845D02*
X173746188Y-90384226D01*
X173746188Y-90384226D02*
X173698569Y-90288988D01*
X173698569Y-90288988D02*
X173698569Y-90098512D01*
X173698569Y-90098512D02*
X173746188Y-90003274D01*
X173746188Y-90003274D02*
X173793807Y-89955655D01*
X173793807Y-89955655D02*
X173889045Y-89908036D01*
X173889045Y-89908036D02*
X174127140Y-89908036D01*
X174127140Y-89908036D02*
X174222378Y-89955655D01*
X174222378Y-89955655D02*
X174269997Y-90003274D01*
X174269997Y-90003274D02*
X174317616Y-90098512D01*
X174317616Y-90098512D02*
X174317616Y-90288988D01*
X174317616Y-90288988D02*
X174269997Y-90384226D01*
X174269997Y-90384226D02*
X174222378Y-90431845D01*
X174222378Y-90431845D02*
X174127140Y-90479464D01*
X154854819Y-88955655D02*
X153854819Y-88955655D01*
X153854819Y-88955655D02*
X153854819Y-89193750D01*
X153854819Y-89193750D02*
X153902438Y-89336607D01*
X153902438Y-89336607D02*
X153997676Y-89431845D01*
X153997676Y-89431845D02*
X154092914Y-89479464D01*
X154092914Y-89479464D02*
X154283390Y-89527083D01*
X154283390Y-89527083D02*
X154426247Y-89527083D01*
X154426247Y-89527083D02*
X154616723Y-89479464D01*
X154616723Y-89479464D02*
X154711961Y-89431845D01*
X154711961Y-89431845D02*
X154807200Y-89336607D01*
X154807200Y-89336607D02*
X154854819Y-89193750D01*
X154854819Y-89193750D02*
X154854819Y-88955655D01*
X154283390Y-90098512D02*
X154235771Y-90003274D01*
X154235771Y-90003274D02*
X154188152Y-89955655D01*
X154188152Y-89955655D02*
X154092914Y-89908036D01*
X154092914Y-89908036D02*
X154045295Y-89908036D01*
X154045295Y-89908036D02*
X153950057Y-89955655D01*
X153950057Y-89955655D02*
X153902438Y-90003274D01*
X153902438Y-90003274D02*
X153854819Y-90098512D01*
X153854819Y-90098512D02*
X153854819Y-90288988D01*
X153854819Y-90288988D02*
X153902438Y-90384226D01*
X153902438Y-90384226D02*
X153950057Y-90431845D01*
X153950057Y-90431845D02*
X154045295Y-90479464D01*
X154045295Y-90479464D02*
X154092914Y-90479464D01*
X154092914Y-90479464D02*
X154188152Y-90431845D01*
X154188152Y-90431845D02*
X154235771Y-90384226D01*
X154235771Y-90384226D02*
X154283390Y-90288988D01*
X154283390Y-90288988D02*
X154283390Y-90098512D01*
X154283390Y-90098512D02*
X154331009Y-90003274D01*
X154331009Y-90003274D02*
X154378628Y-89955655D01*
X154378628Y-89955655D02*
X154473866Y-89908036D01*
X154473866Y-89908036D02*
X154664342Y-89908036D01*
X154664342Y-89908036D02*
X154759580Y-89955655D01*
X154759580Y-89955655D02*
X154807200Y-90003274D01*
X154807200Y-90003274D02*
X154854819Y-90098512D01*
X154854819Y-90098512D02*
X154854819Y-90288988D01*
X154854819Y-90288988D02*
X154807200Y-90384226D01*
X154807200Y-90384226D02*
X154759580Y-90431845D01*
X154759580Y-90431845D02*
X154664342Y-90479464D01*
X154664342Y-90479464D02*
X154473866Y-90479464D01*
X154473866Y-90479464D02*
X154378628Y-90431845D01*
X154378628Y-90431845D02*
X154331009Y-90384226D01*
X154331009Y-90384226D02*
X154283390Y-90288988D01*
D12*
%TO.C,R6*%
X158699564Y-51589000D02*
X158245436Y-51589000D01*
X158699564Y-53059000D02*
X158245436Y-53059000D01*
%TO.C,D5*%
X151908000Y-60759000D02*
X151908000Y-64769000D01*
X151908000Y-60759000D02*
X153908000Y-60759000D01*
X153908000Y-60759000D02*
X153908000Y-64769000D01*
%TO.C,R5*%
X157222564Y-46763000D02*
X156768436Y-46763000D01*
X157222564Y-48233000D02*
X156768436Y-48233000D01*
%TO.C,R4*%
X132688064Y-53621000D02*
X132233936Y-53621000D01*
X132688064Y-55091000D02*
X132233936Y-55091000D01*
%TO.C,R3*%
X132688064Y-56034000D02*
X132233936Y-56034000D01*
X132688064Y-57504000D02*
X132233936Y-57504000D01*
%TO.C,R2*%
X132711564Y-50954000D02*
X132257436Y-50954000D01*
X132711564Y-52424000D02*
X132257436Y-52424000D01*
%TO.C,R1*%
X132688064Y-48414000D02*
X132233936Y-48414000D01*
X132688064Y-49884000D02*
X132233936Y-49884000D01*
D13*
%TO.C,U1*%
X153343000Y-57658000D02*
X153343000Y-40513000D01*
X151438000Y-59563000D02*
X137468000Y-59563000D01*
X148948000Y-38608000D02*
X148944272Y-37697728D01*
X148444272Y-37198000D02*
X140449000Y-37198000D01*
X139949000Y-37698000D02*
X139949000Y-38608000D01*
D14*
X137468000Y-38608000D02*
X151438000Y-38608000D01*
D13*
X137468000Y-38608000D02*
X151438000Y-38608000D01*
X135563000Y-57658000D02*
X135563000Y-40513000D01*
X151438000Y-38608000D02*
G75*
G02*
X153343000Y-40513000I-1J-1905001D01*
G01*
X153343000Y-57658000D02*
G75*
G02*
X151438000Y-59563000I-1905001J1D01*
G01*
X148444272Y-37198000D02*
G75*
G02*
X148944273Y-37697728I-18J-500019D01*
G01*
X139949000Y-37698000D02*
G75*
G02*
X140449000Y-37198000I500000J0D01*
G01*
X135563000Y-40513000D02*
G75*
G02*
X137468000Y-38608000I1905000J0D01*
G01*
X137468000Y-59563000D02*
G75*
G02*
X135563000Y-57658000I0J1905000D01*
G01*
D15*
X153655000Y-38849000D02*
G75*
G02*
X153151000Y-38849000I-252000J0D01*
G01*
X153151000Y-38849000D02*
G75*
G02*
X153655000Y-38849000I252000J0D01*
G01*
X152512000Y-39729000D02*
G75*
G02*
X152008000Y-39729000I-252000J0D01*
G01*
X152008000Y-39729000D02*
G75*
G02*
X152512000Y-39729000I252000J0D01*
G01*
D12*
%TO.C,D1*%
X131429000Y-41296250D02*
X131429000Y-45306250D01*
X129429000Y-41296250D02*
X131429000Y-41296250D01*
X129429000Y-41296250D02*
X129429000Y-45306250D01*
%TO.C,D3*%
X170862500Y-41296250D02*
X170862500Y-45306250D01*
X168862500Y-41296250D02*
X170862500Y-41296250D01*
X168862500Y-41296250D02*
X168862500Y-45306250D01*
%TO.C,D4*%
X134096000Y-60759000D02*
X134096000Y-64769000D01*
X132096000Y-60759000D02*
X134096000Y-60759000D01*
X132096000Y-60759000D02*
X132096000Y-64769000D01*
%TO.C,D6*%
X173720000Y-60759000D02*
X173720000Y-64769000D01*
X171720000Y-60759000D02*
X173720000Y-60759000D01*
X171720000Y-60759000D02*
X171720000Y-64769000D01*
%TO.C,D7*%
X131556250Y-92053750D02*
X131556250Y-88043750D01*
X133556250Y-92053750D02*
X131556250Y-92053750D01*
X133556250Y-92053750D02*
X133556250Y-88043750D01*
%TO.C,D2*%
X158956250Y-41296250D02*
X158956250Y-45306250D01*
X156956250Y-41296250D02*
X158956250Y-41296250D01*
X156956250Y-41296250D02*
X156956250Y-45306250D01*
%TO.C,D9*%
X171243750Y-92053750D02*
X171243750Y-88043750D01*
X173243750Y-92053750D02*
X171243750Y-92053750D01*
X173243750Y-92053750D02*
X173243750Y-88043750D01*
%TO.C,D8*%
X151400000Y-92053750D02*
X151400000Y-88043750D01*
X153400000Y-92053750D02*
X151400000Y-92053750D01*
X153400000Y-92053750D02*
X153400000Y-88043750D01*
%TD*%
M02*
